<svg xmlns="http://www.w3.org/2000/svg" width="1080" height="1080"><rect vector-effect="non-scaling-stroke" x="-540" y="-540" rx="0" ry="0" width="1080" height="1080" fill="none" transform="translate(540 540)"/><path vector-effect="non-scaling-stroke" d="M333.634 406.623l22.503-22.185c12.87-13.182 34.4-13.182 47.27 0l136.636 136.323 136.635-136.323c12.87-13.182 34.4-13.182 47.252 0l22.192 22.185c13.182 12.859 13.182 34.4 0 47.265l-136.323 136.63 136.323 136.64c13.182 12.865 13.182 34.389 0 47.265l-22.192 22.51c-12.852 12.845-34.382 12.845-47.252 0L540.043 660.285 403.408 796.933c-12.87 12.845-34.4 12.845-47.271 0l-22.503-22.51c-12.852-12.876-12.852-34.4 0-47.265l136.635-136.64-136.635-136.636c-12.852-12.858-12.852-34.4 0-47.259z" fill="#433d86"/><text font-family="Raleway" font-size="105" font-weight="900" style="white-space:pre" fill="#c0bbff" transform="translate(540 562.75)"><tspan x="-68.98" y="32.98">CP</tspan></text><text font-family="Alegreya" font-size="80" font-weight="700" style="white-space:pre" fill="#c0bbff" transform="translate(540 617.35)"><tspan x="-150.12" y="25.13">Fansite</tspan></text></svg>